<svg xmlns="http://www.w3.org/2000/svg" viewBox="0 0 64 64"><rect x="12" y="3" width="40" height="58" rx="4" fill="#cdcac2"/><path d="M52 47v10a4 4 0 0 1-4 4H40a12 12 0 0 0 12-14z" fill="#e6e9dc"/><rect x="17" y="8" width="30" height="24" rx="2" fill="#5d6070"/><rect x="21" y="11" width="22" height="18" fill="#88c070"/><path d="M32 26v-9m0 3c-3-2-5-1-6 1m6 1c3-2 5-1 6 1" stroke="#081820" stroke-width="1.8" stroke-linecap="round" fill="none"/><path d="M19 42h8M23 38v8" stroke="#2a2a31" stroke-width="3.4"/><circle cx="38" cy="45" r="3" fill="#a3235c"/><circle cx="45" cy="41" r="3" fill="#a3235c"/></svg>
